<svg width="599" height="366" viewBox="0 0 599 366" fill="none" xmlns="http://www.w3.org/2000/svg">
<rect width="599" height="366" fill="white"/>
<g clip-path="url(#clip0_2_2)">
<path d="M321.183 143.107C308.051 143.107 296.818 151.863 292.244 164.261C288.961 162.812 285.316 162.037 281.49 162.037C268.593 162.037 257.859 171.173 255.512 183.283C253.86 182.873 252.127 182.666 250.344 182.666C238.739 182.666 229.339 191.92 229.339 203.325C229.339 214.729 238.739 223.984 250.344 223.984C253.994 223.984 257.438 223.06 260.428 221.452C265.59 226.627 273.978 230.006 283.445 230.006C291.071 230.006 297.98 227.816 303.082 224.262C307.467 228.858 313.604 231.704 320.401 231.704C329.231 231.704 336.95 226.885 341.155 219.692C344.05 221.32 347.321 222.255 350.764 222.255C362.799 222.255 372.552 211.084 372.552 197.303C372.552 184.031 363.497 173.196 352.077 172.413C350.143 155.883 337.044 143.107 321.183 143.107V143.107Z" fill="#CCCCCC" stroke="#CCCCCC" stroke-width="2" stroke-linecap="round" stroke-linejoin="round"/>
<path d="M318.844 135C305.712 135 294.479 143.755 289.905 156.153C286.622 154.704 282.977 153.93 279.151 153.93C266.255 153.93 255.52 163.065 253.173 175.176C251.521 174.765 249.788 174.558 248.006 174.558C236.4 174.558 227 183.813 227 195.217C227 206.622 236.4 215.876 248.006 215.876C251.655 215.876 255.099 214.952 258.09 213.344C263.252 218.52 271.64 221.898 281.106 221.898C288.732 221.898 295.641 219.709 300.743 216.154C305.129 220.75 311.266 223.597 318.062 223.597C326.892 223.597 334.611 218.778 338.816 211.584C341.711 213.212 344.982 214.147 348.425 214.147C360.461 214.147 370.213 202.976 370.213 189.196C370.213 175.923 361.158 165.088 349.738 164.306C347.804 147.776 334.705 135 318.844 135Z" fill="white" stroke="#AFAFAF" stroke-width="2" stroke-linecap="round" stroke-linejoin="round"/>
</g>
<defs>
<clipPath id="clip0_2_2">
<rect width="147.552" height="98.7041" fill="white" transform="translate(226 134)"/>
</clipPath>
</defs>
</svg>
