<svg xmlns="http://www.w3.org/2000/svg" width="101" height="101" viewBox="0 0 101 101">
  <g id="partner" transform="translate(5944 2507)">
    <circle id="Ellipse_62" data-name="Ellipse 62" cx="50.5" cy="50.5" r="50.5" transform="translate(-5944 -2507)" fill="#f36b6b"/>
    <g id="Group_114" data-name="Group 114" transform="translate(-0.017 -30.156)">
      <g id="ring" transform="translate(-5926.589 -2429.089) rotate(-30)">
        <path id="Path_771" data-name="Path 771" d="M9.514,5.529a11.988,11.988,0,0,1,16.971,0L18,14.014ZM18,9.771l-3.88-3.88a9.026,9.026,0,0,1,7.761,0Z" fill="#fff" fill-rule="evenodd"/>
        <path id="Path_772" data-name="Path 772" d="M3,18.987A14.97,14.97,0,0,1,8.538,7.347l2.135,2.136a12,12,0,1,0,14.655,0l2.135-2.136A15,15,0,1,1,3,18.987Z" fill="#fff"/>
      </g>
      <g id="ring-2" data-name="ring" transform="translate(-5891.588 -2454.089) rotate(30)">
        <path id="Path_771-2" data-name="Path 771" d="M9.514,5.529a11.988,11.988,0,0,1,16.971,0L18,14.014ZM18,9.771l-3.88-3.88a9.026,9.026,0,0,1,7.761,0Z" fill="#fff" fill-rule="evenodd"/>
        <path id="Path_772-2" data-name="Path 772" d="M3,18.987A14.97,14.97,0,0,1,8.538,7.347l2.135,2.136a12,12,0,1,0,14.655,0l2.135-2.136A15,15,0,1,1,3,18.987Z" fill="#fff"/>
      </g>
    </g>
  </g>
</svg>
