<svg xmlns="http://www.w3.org/2000/svg" viewBox="0 0 196.52 80.17"><defs><style>.cls-1,.cls-3,.cls-8{fill:#d83408;}.cls-2{fill:#faa256;}.cls-3{isolation:isolate;font-size:21px;font-family:MyriadPro-Regular, Myriad Pro;}.cls-4{letter-spacing:-0.01em;}.cls-5{fill:#c7360f;}.cls-6{fill:#e05d39;}.cls-7{fill:#575353;}.cls-8{font-size:11px;font-family:MyriadPro-It, Myriad Pro;font-style:italic;}.cls-9{letter-spacing:-0.08em;}.cls-10{letter-spacing:0em;}</style></defs><g id="Layer_2" data-name="Layer 2"><g id="Layer_1-2" data-name="Layer 1"><path class="cls-1" d="M44.54,5.81c-1.75-.29-2.06,2.34-1.25,3.42,2.51,3.19,7.84.1,5.94-4.34-4.68-9-23.1-4.11-25,3-1.35,5.11-.53,10,6.06,14,6.38,3.88,15.44,17.27,5.81,24.85-6.35,6.1-32.65,12.87-30.48-2C7.1,33,28.85,27.62,34.49,35.57c3.6,3.52,4.57-.13-3-5-8-5.2-23.6,1.69-28.91,11.21C-6.14,59.07,32,63.45,45.37,41c0,0,5.13-9-1-14.87-2.94-2.58-7.51-4.2-12.43-8.18-8.84-7.79,2.2-19.78,12.71-14.6C45.83,3.85,48.28,6.43,44.54,5.81Z"/><path class="cls-1" d="M148.07,20.31c-4.86,8-9.88,16.69-11.34,16.84-6.7,1.62,2.51-14.29,2.2-13.14,3.57-5.65-.5-4.07-2.26-2.33a24.06,24.06,0,0,0-4,9.08c-.7,2.72-1.16,5-2.64,6.32-5.23,3.26-.87-6.73.33-8.47,4.56-7.41-1.08-8.46-1.08-8.46-12.23-1.39-14,12.73-17.15,16.93-4.69,2.32-1.57-5.14-1.21-5.88,2.49-5.12,6.58-9,2.43-10-3.08-.21-10.86,8.16-11.34,8.68,2.58-4.32,6.37-10.75,2.24-9.37-1.84.29-6.66,12.37-7.8,14.77-5.09,6-5.52.22-4-1.93a61.5,61.5,0,0,0,5-9.67c.47-1.19.43-2-2-1.76-7.37.71-9.39,5.44-10.46,6.35-.73.17,8.59-18,8.45-18.11,3.08-6.42-1-5.44-2.23-3.7-5.68,15-12.45,27.64-14.6,30.29-7.18,3.52-6.55-1.78-5.89-4.37a1.37,1.37,0,0,1,1.46-1.07c4.51.47,8.37-4.78,8.72-5.26,3.79-5.89-1.54-7.36-5.08-5.61C62,28.71,70.64,35.42,65,37.77c-6.77,3.6,4.64-13.47,3.69-13.52,0-6.81-10.88,1.32-12.34,3.74,0,0-.16,0-.12-.1L65.72,8.18c.4-3.79-2.84-2.24-3.6-1.07L51.38,31.44c-5.12,8.88-2.11,10.06.13,7.86,3.47-6.37,5.27-8.49,8.28-11.63,2-1.65,4.92-3,2,2.08-3,6.09-2.57,7.7-2.44,8.09,1.28,2.9,5.65,2.39,7.11.8a1.46,1.46,0,0,1,2-.11c4.93,4.62,7.55-1.1,8.22,1.24.4,2.63,4-1,4.45-1.58,1.93-4.35,5.93-10.45,10.29-12.45,4.76-1.53-5,8.56-3.66,10.12,0,4.09,4.53,4.92,5.56,3.62.48-.6,1-1.06,1.27.31.58,1.75,2.65-.16,3.13-1.11A50,50,0,0,1,108.54,26c5.49-3.2-6.68,8.94-.54,14.09a3.66,3.66,0,0,0,5-1.34c1.23-2.33,2.37,1.14,3.47.84,2.65,2.13,6.52-5.12,8.29-1.81,1.25,3.85,3.72,2.49,5.29,1.07.59-.53,1.27-1,2,.14a2.18,2.18,0,0,0,1.77.93c5.31,0,7.86-4.93,8.15-5.54-4.91,17.38-28.69,18.19-38,17.61a1.09,1.09,0,0,0-.57.13,1.06,1.06,0,0,0-.57.93,1.23,1.23,0,0,0,0,.19l.28.16c12.27,7,32.72,7.52,36.89-3a16.69,16.69,0,0,0,1.36-3.48,98.58,98.58,0,0,1,7.09-20.13C153.61,17.14,148.93,19.82,148.07,20.31Zm-68.3,3.44c0,.38-1.14,4.36-6.49,5.32-.3.06-1,.11-1-1.11C72,25.7,78.49,19.23,79.77,23.75Zm47.82-1.41c2.55,0,1.08,2.52,1.08,2.52C115.55,50.09,112.52,27.84,127.59,22.34Z"/><path class="cls-2" d="M155.76,18.3c-2.25-1.39.58-5.69,3.58-3.91S158.69,21.12,155.76,18.3Z"/><path class="cls-1" d="M154.3,21.9c-2.1-2.45,1-1.11,3.33.15,1.08.59-.32,1.74-.29,2.31l-3.41,8.93a42.1,42.1,0,0,0-1,5.87c.8,1-3.29,1.05-3.46-.79C149.62,34.42,152.65,27.43,154.3,21.9Z"/><text class="cls-3" transform="translate(147.49 52.06) scale(1.15 1)">.<tspan class="cls-4" x="4.35" y="0">c</tspan><tspan x="13.63" y="0">om</tspan></text><path class="cls-2" d="M103.55,51.88c0-2.28-2.43-2.56-4.21-1.06s-.62,5.57,1.91,4.46c0,0,3.39,6.93,3.55,9.76a.64.64,0,0,0,.88.54c7.78-2.85-.48-7.72-2.36-11.18C103.32,54.4,102.93,53.81,103.55,51.88Z"/><path class="cls-5" d="M99.12,54.92c.25-.37-3.83,1.53-4.78,9.4a1.4,1.4,0,0,1-1.92,1.32c-7.62-2.27,1-10.25,2.37-10.78.43-.3,1.77-.64,1.47-1.4-.42-1.23.23-4.48,2.92-4.53,2.87-.06,2.21,1,2.21,1S97.12,50,99.12,54.92Z"/><path class="cls-2" d="M95.32,51.88c-4.88,3.64-15.39-2-22.61-2.79L55.34,46c-2.53-.53-2.55,3-2.83,4.61.39,2.76-8.06,6.83-3.13,8.34C59.72,58.8,86,57,94.49,55c.91-.28,2.61-.37,2.16-1.7C96.61,52.5,96.47,51,95.32,51.88Z"/><path class="cls-2" d="M55.43,47.79c0,.74-2,.74-2,0S55.46,47.05,55.43,47.79Z"/><path class="cls-6" d="M55.81,47.12c0,.61-1.65.54-1.61-.06S55.86,46.53,55.81,47.12Z"/><path class="cls-6" d="M53.89,51.56c0,.33-1.46.28-1.43-.05S53.92,51.23,53.89,51.56Z"/><path class="cls-6" d="M56.56,54c0,.41-1.35.35-1.32-.05S56.59,53.56,56.56,54Z"/><path class="cls-6" d="M59.09,57.43c0,.4-1.35.35-1.32,0S59.12,57,59.09,57.43Z"/><path class="cls-6" d="M87.17,54.62c0,.37-1,.33-1,0S87.19,54.25,87.17,54.62Z"/><path class="cls-6" d="M88.92,55.58c0,.37-1,.33-1,0S89,55.21,88.92,55.58Z"/><path class="cls-6" d="M90.68,53.91c0,.37-1,.34-1,0S90.71,53.55,90.68,53.91Z"/><path class="cls-6" d="M92.52,54c0,.33-.64.31-.62,0S92.54,53.62,92.52,54Z"/><path class="cls-6" d="M76.21,51.13c0,.6-1.65.54-1.61-.06S76.25,50.53,76.21,51.13Z"/><path class="cls-6" d="M65.17,56.15c0,.6-1.66.54-1.62-.06S65.21,55.55,65.17,56.15Z"/><path class="cls-6" d="M70.31,57.18c0,.44-1.52.38-1.48,0S70.34,56.75,70.31,57.18Z"/><path class="cls-6" d="M59.23,50.09c0,.6-1.65.54-1.61-.06S59.27,49.49,59.23,50.09Z"/><path class="cls-6" d="M63.36,48.67c0,.6-1.65.53-1.61-.06S63.4,48.07,63.36,48.67Z"/><path class="cls-6" d="M61.15,53.86c0,.6-1.66.53-1.62-.06S61.19,53.26,61.15,53.86Z"/><path class="cls-6" d="M70.11,50.59c0,.6-1.65.54-1.61-.06S70.15,50,70.11,50.59Z"/><path class="cls-6" d="M71.32,54.47c0,.49-1.42.43-1.38,0S71.35,54,71.32,54.47Z"/><path class="cls-6" d="M78.72,55.78c-.11.43-1.3.08-1.16-.35S78.86,55.35,78.72,55.78Z"/><path class="cls-6" d="M74.33,53.8c.07-.26.67-.08.59.18S74.25,54.05,74.33,53.8Z"/><path class="cls-6" d="M74.74,57.38c-.12.43-1.31.08-1.17-.35S74.88,57,74.74,57.38Z"/><path class="cls-6" d="M81.7,54.5c-.08.32-1,.06-.85-.25S81.8,54.19,81.7,54.5Z"/><path class="cls-6" d="M84.11,53.81c-.08.32-1,.06-.85-.25S84.21,53.5,84.11,53.81Z"/><path class="cls-6" d="M84.38,56.17c-.09.33-1,.06-.85-.25S84.48,55.86,84.38,56.17Z"/><path class="cls-6" d="M66.18,52.64c0,.6-1.66.53-1.61-.06S66.22,52,66.18,52.64Z"/><path class="cls-6" d="M78.66,53.09c0,.36-1,.33-1,0S78.69,52.72,78.66,53.09Z"/><path class="cls-6" d="M54,57.28c0,.6-1.5.45-1.42-.15S54.08,56.69,54,57.28Z"/><path class="cls-6" d="M49.86,56.81c0,.6-1.5.44-1.42-.15S49.94,56.21,49.86,56.81Z"/><path class="cls-7" d="M131.9,50.11c0,.38,1.33.57,1.22,0C133.07,49.75,131.79,49.55,131.9,50.11Z"/><path class="cls-7" d="M134.4,53.65c0,.22,1.12.33,1.07,0S134.34,53.35,134.4,53.65Z"/><path class="cls-7" d="M132.91,55.41c0,.26,1.06.39,1,0S132.84,55,132.91,55.41Z"/><path class="cls-7" d="M109.65,54.54c0,.23.81.36.75,0S109.58,54.2,109.65,54.54Z"/><path class="cls-7" d="M108.53,55.21c0,.23.81.35.75,0S108.46,54.87,108.53,55.21Z"/><path class="cls-7" d="M106.79,53.83c0,.23.82.35.75,0S106.73,53.49,106.79,53.83Z"/><path class="cls-7" d="M105.4,53.78a.33.33,0,0,0,.3.2C106.27,53.89,105.35,53.26,105.4,53.78Z"/><path class="cls-7" d="M117.22,52.31c0,.38,1.33.58,1.22,0C118.39,52,117.11,51.76,117.22,52.31Z"/><path class="cls-7" d="M126.83,56.73c0,.38,1.33.58,1.22,0C128,56.37,126.72,56.17,126.83,56.73Z"/><path class="cls-7" d="M123.14,57.3c0,.28,1.19.43,1.11,0S123.06,56.9,123.14,57.3Z"/><path class="cls-7" d="M130,52.27c.05.38,1.33.58,1.22,0C131.14,51.91,129.86,51.71,130,52.27Z"/><path class="cls-7" d="M126.48,51c0,.38,1.33.58,1.22,0C127.65,50.61,126.37,50.41,126.48,51Z"/><path class="cls-7" d="M129.38,55.12c0,.38,1.32.58,1.21,0C130.55,54.76,129.26,54.57,129.38,55.12Z"/><path class="cls-7" d="M121.76,52.16c0,.38,1.33.58,1.22,0C122.93,51.81,121.65,51.61,121.76,52.16Z"/><path class="cls-7" d="M121.74,55.14c0,.31,1.13.47,1,0S121.65,54.69,121.74,55.14Z"/><path class="cls-7" d="M116.37,55.82c.13.31,1,.19.81-.22S116.19,55.42,116.37,55.82Z"/><path class="cls-7" d="M119.27,54.48a.25.25,0,0,0-.29-.1C118.51,54.6,119.4,54.91,119.27,54.48Z"/><path class="cls-7" d="M105.3,52.77a.29.29,0,0,0-.3-.1C104.53,52.89,105.42,53.21,105.3,52.77Z"/><path class="cls-7" d="M119.79,57.25c.13.31,1,.18.81-.22S119.6,56.85,119.79,57.25Z"/><path class="cls-7" d="M113.8,54.69c.09.23.73.14.59-.16S113.66,54.4,113.8,54.69Z"/><path class="cls-7" d="M111.8,54c.09.23.72.14.59-.16S111.66,53.75,111.8,54Z"/><path class="cls-7" d="M112.14,55.88c.09.22.73.13.59-.16S112,55.58,112.14,55.88Z"/><path class="cls-7" d="M125.24,53.94c.05.38,1.33.58,1.22,0C126.41,53.58,125.13,53.39,125.24,53.94Z"/><path class="cls-7" d="M115.8,53.72c0,.24.81.36.74,0S115.73,53.39,115.8,53.72Z"/><text class="cls-8" transform="translate(0 77.42)">Shadi <tspan class="cls-9" x="27.04" y="0">T</tspan><tspan x="31.42" y="0">ahanji , Zimmedari </tspan><tspan class="cls-10" x="116.55" y="0">A</tspan><tspan x="122.86" y="0">sanji !!</tspan></text></g></g></svg>