<svg xmlns="http://www.w3.org/2000/svg" viewBox="0 0 193.17 79.59"><defs><style>.cls-1,.cls-2,.cls-4{fill:#fff;}.cls-2{isolation:isolate;font-size:21px;font-family:MyriadPro-Regular, Myriad Pro;}.cls-3{letter-spacing:-0.01em;}.cls-4{font-size:11px;font-family:MyriadPro-It, Myriad Pro;font-style:italic;}.cls-5{letter-spacing:-0.08em;}.cls-6{letter-spacing:0em;}.cls-7{letter-spacing:0em;}.cls-8{letter-spacing:0em;}</style></defs><g id="Layer_2" data-name="Layer 2"><g id="Layer_1-2" data-name="Layer 1"><path class="cls-1" d="M44.36,5.81c-1.76-.29-2.07,2.34-1.26,3.42,2.52,3.19,7.84.1,5.94-4.34-4.68-9-23.1-4.11-25,3-1.35,5.11-.52,10,6.06,14,6.39,3.88,15.44,17.27,5.81,24.85-6.34,6.1-32.65,12.87-30.47-2C6.92,33,28.66,27.62,34.3,35.57c3.6,3.52,4.58-.13-3-5-8-5.2-23.61,1.69-28.91,11.21C-6.33,59.07,31.78,63.45,45.18,41c0,0,5.13-9-1-14.87-2.94-2.58-7.51-4.2-12.43-8.18C22.94,10.15,34-1.84,44.49,3.34,45.65,3.85,48.1,6.43,44.36,5.81Z"/><path class="cls-1" d="M147.88,20.31C143,28.31,138,37,136.54,37.15c-6.7,1.62,2.51-14.29,2.2-13.14,3.57-5.65-.5-4.07-2.26-2.33a24.06,24.06,0,0,0-4,9.08c-.7,2.72-1.16,5-2.64,6.32-5.23,3.26-.87-6.73.33-8.47,4.56-7.41-1.08-8.46-1.08-8.46-12.23-1.39-14,12.73-17.15,16.93-4.69,2.32-1.57-5.14-1.21-5.88,2.49-5.12,6.58-9,2.43-10-3.08-.21-10.86,8.16-11.34,8.68,2.58-4.32,6.37-10.75,2.24-9.37-1.84.29-6.66,12.37-7.8,14.77-5.09,6-5.52.22-4-1.93a61.5,61.5,0,0,0,5-9.67c.47-1.19.43-2-2-1.76-7.37.71-9.39,5.44-10.46,6.35-.73.17,8.59-18,8.45-18.11,3.08-6.42-1-5.44-2.23-3.7-5.68,15-12.45,27.64-14.6,30.29-7.18,3.52-6.55-1.78-5.89-4.37A1.37,1.37,0,0,1,72,31.27c4.51.47,8.37-4.78,8.72-5.26,3.79-5.89-1.54-7.36-5.08-5.61-13.83,8.31-5.18,15-10.87,17.37C58,41.37,69.4,24.3,68.45,24.25c0-6.81-10.88,1.32-12.34,3.74,0,0-.16,0-.12-.1L65.53,8.18c.4-3.79-2.84-2.24-3.6-1.07L51.19,31.44c-5.12,8.88-2.11,10.06.13,7.86,3.47-6.37,5.27-8.49,8.28-11.63,2-1.65,4.92-3,2,2.08-3,6.09-2.57,7.7-2.44,8.09,1.28,2.9,5.65,2.39,7.11.8a1.46,1.46,0,0,1,2-.11c4.93,4.62,7.55-1.1,8.22,1.24.4,2.63,4-1,4.45-1.58,1.93-4.35,5.93-10.45,10.29-12.45,4.76-1.53-5,8.56-3.66,10.12,0,4.09,4.53,4.92,5.56,3.62.48-.6,1-1.06,1.27.31.58,1.75,2.65-.16,3.13-1.11A50,50,0,0,1,108.35,26c5.49-3.2-6.68,8.94-.54,14.09a3.66,3.66,0,0,0,5-1.34c1.23-2.33,2.37,1.14,3.47.84,2.65,2.13,6.52-5.12,8.29-1.81,1.25,3.85,3.72,2.49,5.29,1.07.59-.53,1.27-1,2,.14a2.18,2.18,0,0,0,1.77.93c5.31,0,7.86-4.93,8.15-5.54C137,51.73,113.18,52.54,103.87,52a1.09,1.09,0,0,0-.57.13,1.06,1.06,0,0,0-.57.93,1.23,1.23,0,0,0,0,.19l.28.16c12.27,7,32.72,7.52,36.89-3a16.69,16.69,0,0,0,1.36-3.48,98.58,98.58,0,0,1,7.09-20.13C153.42,17.14,148.74,19.82,147.88,20.31Zm-68.3,3.44c0,.38-1.14,4.36-6.49,5.32-.3.06-1,.11-1-1.11C71.77,25.7,78.3,19.23,79.58,23.75Zm47.82-1.41c2.55,0,1.08,2.52,1.08,2.52C115.36,50.09,112.33,27.84,127.4,22.34Z"/><path class="cls-1" d="M155.58,18.3c-2.26-1.39.57-5.69,3.58-3.91S158.5,21.12,155.58,18.3Z"/><path class="cls-1" d="M154.11,21.9c-2.1-2.45,1-1.11,3.33.15,1.08.59-.32,1.74-.29,2.31l-3.41,8.93a42.1,42.1,0,0,0-1,5.87c.8,1-3.29,1.05-3.46-.79C149.44,34.42,152.46,27.43,154.11,21.9Z"/><text class="cls-2" transform="translate(150.5 52.42)">.<tspan class="cls-3" x="4.35" y="0">c</tspan><tspan x="13.63" y="0">om</tspan></text><path class="cls-1" d="M103.36,51.88c0-2.28-2.43-2.56-4.21-1.06s-.62,5.57,1.92,4.46c0,0,3.39,6.93,3.55,9.76a.63.63,0,0,0,.87.54c7.78-2.85-.48-7.72-2.36-11.18C103.13,54.4,102.75,53.81,103.36,51.88Z"/><path class="cls-1" d="M98.94,54.92c.24-.37-3.84,1.53-4.79,9.4a1.4,1.4,0,0,1-1.92,1.32c-7.62-2.27,1-10.25,2.38-10.78.43-.3,1.77-.64,1.46-1.4-.41-1.23.23-4.48,2.92-4.53,2.87-.06,2.21,1,2.21,1S96.93,50,98.94,54.92Z"/><path class="cls-1" d="M95.13,51.88c-4.88,3.64-15.39-2-22.6-2.79L55.15,46c-2.52-.53-2.55,3-2.83,4.61.39,2.76-8.06,6.83-3.12,8.34C59.53,58.8,85.83,57,94.3,55c.91-.28,2.61-.37,2.16-1.7C96.42,52.5,96.28,51,95.13,51.88Z"/><path d="M55.63,47.12c0,.61-1.66.54-1.61-.06S55.67,46.53,55.63,47.12Z"/><path d="M53.7,51.56c0,.33-1.46.28-1.42-.05S53.73,51.23,53.7,51.56Z"/><path d="M56.37,54c0,.41-1.35.35-1.31-.05S56.41,53.56,56.37,54Z"/><path d="M58.9,57.43c0,.4-1.35.35-1.31,0S58.94,57,58.9,57.43Z"/><path d="M87,54.62c0,.37-1,.33-1,0S87,54.25,87,54.62Z"/><path d="M88.74,55.58c0,.37-1,.33-1,0S88.76,55.21,88.74,55.58Z"/><path d="M90.5,53.91c0,.37-1,.34-1,0S90.52,53.55,90.5,53.91Z"/><path d="M92.33,54c0,.33-.63.31-.62,0S92.35,53.62,92.33,54Z"/><path d="M76,51.13c0,.6-1.65.54-1.61-.06S76.07,50.53,76,51.13Z"/><path d="M65,56.15c0,.6-1.65.54-1.61-.06S65,55.55,65,56.15Z"/><path d="M70.12,57.18c0,.44-1.51.38-1.48,0S70.16,56.75,70.12,57.18Z"/><path d="M59,50.09c0,.6-1.65.54-1.61-.06S59.09,49.49,59,50.09Z"/><path d="M63.17,48.67c0,.6-1.65.53-1.61-.06S63.22,48.07,63.17,48.67Z"/><path d="M61,53.86c0,.6-1.65.53-1.61-.06S61,53.26,61,53.86Z"/><path d="M69.92,50.59c0,.6-1.65.54-1.61-.06S70,50,69.92,50.59Z"/><path d="M71.13,54.47c0,.49-1.42.43-1.38,0S71.17,54,71.13,54.47Z"/><path d="M78.53,55.78c-.11.43-1.3.08-1.16-.35S78.68,55.35,78.53,55.78Z"/><path d="M74.15,53.8c.06-.26.66-.08.58.17S74.06,54.05,74.15,53.8Z"/><path d="M74.55,57.38c-.11.43-1.3.08-1.16-.35S74.69,57,74.55,57.38Z"/><path d="M81.51,54.5c-.08.32-1,.06-.84-.25S81.62,54.19,81.51,54.5Z"/><path d="M83.92,53.81c-.08.32-1,.06-.84-.25S84,53.5,83.92,53.81Z"/><path d="M84.19,56.17c-.08.33-1,.06-.85-.25S84.29,55.86,84.19,56.17Z"/><path d="M66,52.64c0,.6-1.65.53-1.61-.06S66,52,66,52.64Z"/><path d="M78.47,53.09c0,.36-1,.33-1,0S78.5,52.72,78.47,53.09Z"/><path d="M53.81,57.28c-.05.6-1.5.45-1.42-.15S53.89,56.69,53.81,57.28Z"/><path d="M49.67,56.81c0,.6-1.5.44-1.42-.15S49.75,56.21,49.67,56.81Z"/><path d="M131.71,50.11c0,.38,1.33.57,1.22,0C132.88,49.75,131.6,49.55,131.71,50.11Z"/><path d="M134.21,53.65c0,.22,1.13.33,1.08,0S134.16,53.35,134.21,53.65Z"/><path d="M132.72,55.41c0,.26,1.06.39,1,0S132.65,55,132.72,55.41Z"/><path d="M109.46,54.54c0,.23.82.36.75,0S109.39,54.2,109.46,54.54Z"/><path d="M108.34,55.21c0,.23.82.35.75,0S108.27,54.87,108.34,55.21Z"/><path d="M106.61,53.83c0,.23.81.35.75,0S106.54,53.49,106.61,53.83Z"/><path d="M105.21,53.78a.33.33,0,0,0,.3.2C106.08,53.89,105.16,53.26,105.21,53.78Z"/><path d="M117,52.31c0,.38,1.33.58,1.22,0C118.2,52,116.92,51.76,117,52.31Z"/><path d="M126.64,56.73c0,.38,1.33.58,1.22,0C127.81,56.37,126.53,56.17,126.64,56.73Z"/><path d="M123,57.3c0,.28,1.19.43,1.12,0S122.88,56.9,123,57.3Z"/><path d="M129.78,52.27c.05.38,1.33.58,1.22,0C131,51.91,129.67,51.71,129.78,52.27Z"/><path d="M126.29,51c0,.38,1.33.58,1.22,0C127.46,50.61,126.19,50.41,126.29,51Z"/><path d="M129.19,55.12c.05.38,1.33.58,1.22,0C130.36,54.76,129.08,54.57,129.19,55.12Z"/><path d="M121.57,52.16c.05.38,1.33.58,1.22,0C122.74,51.81,121.47,51.61,121.57,52.16Z"/><path d="M121.55,55.14c0,.31,1.13.47,1,0S121.46,54.69,121.55,55.14Z"/><path d="M116.19,55.82c.12.31,1,.19.81-.22S116,55.42,116.19,55.82Z"/><path d="M119.09,54.48a.26.26,0,0,0-.29-.1C118.32,54.6,119.22,54.91,119.09,54.48Z"/><path d="M105.11,52.77a.28.28,0,0,0-.29-.1C104.34,52.89,105.24,53.21,105.11,52.77Z"/><path d="M119.61,57.25c.12.31,1,.18.8-.22S119.42,56.85,119.61,57.25Z"/><path d="M113.61,54.69c.1.23.73.14.59-.16S113.48,54.4,113.61,54.69Z"/><path d="M111.61,54c.09.23.73.14.59-.16S111.47,53.75,111.61,54Z"/><path d="M112,55.88c.09.22.73.13.59-.16S111.82,55.58,112,55.88Z"/><path d="M125.06,53.94c0,.38,1.32.58,1.21,0C126.23,53.58,125,53.39,125.06,53.94Z"/><path d="M115.61,53.72c0,.24.81.36.75,0S115.54,53.39,115.61,53.72Z"/><text class="cls-4" transform="translate(0 76.84)">Shadi <tspan class="cls-5" x="27.04" y="0">T</tspan><tspan class="cls-6" x="31.42" y="0">ahanji , Zimmedari </tspan><tspan class="cls-7" x="116.55" y="0">A</tspan><tspan class="cls-8" x="122.86" y="0">sanji !!</tspan></text></g></g></svg>